<?xml version="1.0" encoding="utf-8"?>
<!-- Generator: Adobe Illustrator 26.0.3, SVG Export Plug-In . SVG Version: 6.00 Build 0)  -->
<svg version="1.1" id="Layer_1" xmlns="http://www.w3.org/2000/svg" xmlns:xlink="http://www.w3.org/1999/xlink" x="0px" y="0px"
	 viewBox="0 0 512 512" style="enable-background:new 0 0 512 512;" xml:space="preserve">
<style type="text/css">
	.st0{fill:#B3C3C4;}
</style>
<path class="st0" d="M480,496H48c-17.7,0-32-14.3-32-32V32c0-8.8,7.2-16,16-16s16,7.2,16,16v432h432c8.8,0,16,7.2,16,16
	S488.8,496,480,496z"/>
<path class="st0" d="M156,432h-40c-19.9,0-36-16.1-36-36V244c0-19.9,16.1-36,36-36h40c19.9,0,36,16.1,36,36v152
	C192,415.9,175.9,432,156,432z"/>
<path class="st0" d="M300,432h-40c-19.9,0-36-16.1-36-36V196c0-19.9,16.1-36,36-36h40c19.9,0,36,16.1,36,36v200
	C336,415.9,319.9,432,300,432z"/>
<path class="st0" d="M443.6,432h-40c-19.9,0-36-16.1-36-36V132c0-19.9,16.1-36,36-36h40c19.9,0,36,16.1,36,36v264
	C479.6,415.9,463.5,432,443.6,432z"/>
</svg>
