<?xml version="1.0" encoding="utf-8"?>
<!-- Generator: Adobe Illustrator 26.0.3, SVG Export Plug-In . SVG Version: 6.00 Build 0)  -->
<svg version="1.1" id="Layer_1" xmlns="http://www.w3.org/2000/svg" xmlns:xlink="http://www.w3.org/1999/xlink" x="0px" y="0px"
	 viewBox="0 0 512 512" style="enable-background:new 0 0 512 512;" xml:space="preserve">
<style type="text/css">
	.st0{fill:#C3D2D3;}
</style>
<path class="st0" d="M289.9,256l95-95c9.4-9.4,9.4-24.6,0-34s-24.6-9.4-34,0l0,0l-95,95l-95-95c-9.4-9.4-24.6-9.4-34,0
	s-9.4,24.6,0,34l95,95l-95,95c-9.4,9.4-9.4,24.6,0,34s24.6,9.4,34,0l95-95l95,95c9.4,9.4,24.6,9.4,34,0s9.4-24.6,0-34L289.9,256z"/>
</svg>
