<?xml version="1.0" encoding="utf-8"?>
<!-- Generator: Adobe Illustrator 26.0.3, SVG Export Plug-In . SVG Version: 6.00 Build 0)  -->
<svg version="1.1" id="Layer_1" xmlns="http://www.w3.org/2000/svg" xmlns:xlink="http://www.w3.org/1999/xlink" x="0px" y="0px"
	 viewBox="0 0 512 512" style="enable-background:new 0 0 512 512;" xml:space="preserve">
<style type="text/css">
	.st0{fill:#B3C3C4;}
</style>
<path class="st0" d="M459.9,53.2c-6-6.6-16.1-7-22.7-1.1c-0.2,0.2-0.4,0.3-0.5,0.5L424.4,65c-3.1,3.1-3.1,8.2,0,11.3l11.3,11.3
	c3.1,3.1,8.2,3.1,11.3,0c0,0,0,0,0,0l12.1-12C465.2,69.5,465.8,59.6,459.9,53.2z"/>
<path class="st0" d="M399.3,90L218.8,270.2c-1.1,1.1-1.9,2.4-2.3,3.9l-8.4,24.9c-0.6,2.1,0.6,4.2,2.6,4.9c0.7,0.2,1.5,0.2,2.2,0
	l24.9-8.4c1.5-0.4,2.8-1.2,3.9-2.3L422,112.7c3.5-3.5,3.5-9.2,0-12.7l-10-10C408.5,86.5,402.9,86.5,399.3,90z"/>
<path class="st0" d="M386.3,193.7L264.5,315.8c-4.7,4.7-10.5,8.2-16.9,10.2l-25.9,8.7c-19.1,5.4-38.9-5.7-44.3-24.8
	c-1.8-6.4-1.8-13.1,0-19.5l8.7-25.9c2-6.4,5.5-12.2,10.2-16.9l122.1-121.9c3.1-3.1,3.1-8.2,0-11.3c-1.5-1.5-3.5-2.3-5.7-2.3H104
	c-30.9,0-56,25.1-56,56v240c0,30.9,25.1,56,56,56h240c30.9,0,56-25.1,56-56V199.3c0-4.4-3.6-8-8-8
	C389.9,191.3,387.8,192.2,386.3,193.7z"/>
</svg>
