<?xml version="1.0" encoding="utf-8"?>
<!-- Generator: Adobe Illustrator 26.0.3, SVG Export Plug-In . SVG Version: 6.00 Build 0)  -->
<svg version="1.1" id="icons" xmlns="http://www.w3.org/2000/svg" xmlns:xlink="http://www.w3.org/1999/xlink" x="0px" y="0px"
	 viewBox="0 0 512 512" style="enable-background:new 0 0 512 512;" xml:space="preserve">
<style type="text/css">
	.st0{fill:#B3C3C4;}
</style>
<path class="st0" d="M368,16H144c-35.3,0-64,28.7-64,64v352c0,35.3,28.7,64,64,64h224c35.3,0,64-28.7,64-64V80
	C432,44.7,403.3,16,368,16z M333.5,284.5c7.6,8.2,11.3,19.2,10.4,30.9c-1.7,23.5-19.6,42.5-39.9,42.5s-38.2-19.1-39.9-42.5
	c-0.9-11.9,2.8-22.9,10.3-31S292.4,272,304,272C315.1,271.8,325.8,276.4,333.5,284.5z M192,80c0-8.8,7.2-16,16-16h96
	c8.8,0,16,7.2,16,16s-7.2,16-16,16h-96C199.2,96,192,88.8,192,80z M381,443.8c-2.3,2.7-5.7,4.2-9.3,4.2H236.3
	c-3.6,0.1-7-1.5-9.3-4.2c-2.5-3-3.5-7-2.8-10.9c3.2-17.6,13.4-32.3,29.3-42.7c14.1-9.2,32.1-14.2,50.5-14.2s36.3,5.1,50.5,14.2
	c15.9,10.4,26,25.1,29.3,42.7C384.5,436.8,383.5,440.8,381,443.8z"/>
</svg>
