<?xml version="1.0" encoding="utf-8"?>
<!-- Generator: Adobe Illustrator 26.0.3, SVG Export Plug-In . SVG Version: 6.00 Build 0)  -->
<svg version="1.1" id="Layer_1" xmlns="http://www.w3.org/2000/svg" xmlns:xlink="http://www.w3.org/1999/xlink" x="0px" y="0px"
	 viewBox="0 0 512 512" style="enable-background:new 0 0 512 512;" xml:space="preserve">
<style type="text/css">
	.st0{fill:#B3C3C4;}
</style>
<path class="st0" d="M64,48h384c17.7,0,32,14.3,32,32v16c0,17.7-14.3,32-32,32H64c-17.7,0-32-14.3-32-32V80C32,62.3,46.3,48,64,48z"
	/>
<path class="st0" d="M74.4,160c-4.4,0-8,3.5-8,8c0,0.3,0,0.6,0,0.9l26.3,252.6c0,0.1,0,0.1,0,0.2c2.8,24.2,23.3,42.4,47.7,42.4
	h231.1c24.3,0,44.8-18.2,47.7-42.4v-0.2l26.3-252.6c0.5-4.4-2.7-8.3-7.1-8.8c-0.3,0-0.6,0-0.9,0L74.4,160z M323.3,340.7
	c6.3,6.2,6.5,16.3,0.3,22.6s-16.3,6.5-22.6,0.3c-0.1-0.1-0.2-0.2-0.3-0.3L256,318.6l-44.7,44.7c-6.3,6.2-16.5,6-22.6-0.3
	c-6-6.2-6-16.1,0-22.3l44.7-44.7l-44.7-44.7c-6.2-6.3-6-16.5,0.3-22.6c6.2-6,16.1-6,22.3,0l44.7,44.7l44.7-44.7
	c6.3-6.2,16.5-6,22.6,0.3c6,6.2,6,16.1,0,22.3L278.6,296L323.3,340.7z"/>
</svg>
